<svg xmlns="http://www.w3.org/2000/svg" viewBox="0 0 64 64" role="img" aria-label="Unitester quiz icon">
  <rect width="64" height="64" rx="14" fill="#123c69"/>
  <rect x="13" y="10" width="38" height="44" rx="7" fill="#f8fafc"/>
  <path d="M24 27c0-5 3.6-8.3 8.6-8.3 4.7 0 8.1 2.9 8.1 7.1 0 3.1-1.7 5-4.5 6.8-2.2 1.4-2.8 2.3-2.8 4.4v.8h-6.1v-1.1c0-3.6 1.4-5.5 4.5-7.5 2-1.3 2.8-2.2 2.8-3.6 0-1.6-1.2-2.6-3.1-2.6-2.2 0-3.5 1.4-3.6 4H24Z" fill="#123c69"/>
  <circle cx="30.5" cy="45" r="3.4" fill="#123c69"/>
  <circle cx="49" cy="47" r="10" fill="#18a058"/>
  <path d="m44.5 47.2 2.9 3 6-6.7" fill="none" stroke="#fff" stroke-width="3.2" stroke-linecap="round" stroke-linejoin="round"/>
</svg>
